<svg width="26" height="23" viewBox="0 0 26 23" fill="none" xmlns="http://www.w3.org/2000/svg">
<path d="M7.26285 2.65107C6.73924 2.36312 6.08021 2.55 5.79132 3.07244C5.30833 3.93539 5.05556 4.91469 5.05556 5.90297C5.05556 6.75783 5.23751 7.58484 5.59632 8.3566C5.779 8.75088 6.17094 8.98236 6.58035 8.98236C6.73269 8.98236 6.88716 8.95008 7.03399 8.88268C7.57882 8.63422 7.81354 7.9559 7.56076 7.45277C7.33507 6.96762 7.22222 6.44652 7.22222 5.90297C7.22222 5.27721 7.38233 4.65908 7.6849 4.11463C7.97604 3.59578 7.78646 2.93902 7.26285 2.65107ZM2.82615 0.106383C2.08406 -0.19383 1.24493 0.165366 0.94566 0.899569C0.318094 2.44219 0 4.0742 0 5.7098C0 7.42582 0.318094 9.06098 0.94566 10.6018C1.17271 11.1633 1.71392 11.5002 2.28538 11.5002C2.46503 11.5002 2.6492 11.4688 2.82615 11.3969C3.56597 11.0959 3.92302 10.2604 3.6233 9.52367C3.1358 8.32426 2.88889 7.05746 2.88889 5.75023C2.88889 4.4448 3.13575 3.17621 3.6233 1.97724C3.92302 1.24187 3.56597 0.403991 2.82615 0.106383ZM25.0521 0.899569C24.7538 0.162401 23.9132 -0.192482 23.1716 0.106248C22.4318 0.403856 22.0747 1.24187 22.3744 1.97724C22.8628 3.17621 23.1111 4.44525 23.1111 5.75023C23.1111 7.05566 22.8642 8.32471 22.3767 9.48324C22.0774 10.2604 22.434 11.0959 23.1743 11.3969C23.3503 11.4688 23.5354 11.5002 23.716 11.5002C24.2874 11.5002 24.8282 11.1605 25.0552 10.6018C25.6434 9.06098 26 7.42582 26 5.7098C26 4.0742 25.6434 2.44219 25.0521 0.899569ZM18.9674 2.61603C18.4243 2.86589 18.1874 3.50594 18.4383 4.04635C18.6649 4.53285 18.7778 5.05394 18.7778 5.5975C18.7778 6.22371 18.6177 6.84139 18.3151 7.38584C18.0252 7.90648 18.2149 8.56369 18.7383 8.85119C18.9048 8.94243 19.0846 8.98596 19.2623 8.98596C19.6432 8.98596 20.0135 8.78516 20.2112 8.43027C20.6917 7.56508 20.9444 6.58578 20.9444 5.5975C20.9444 4.74264 20.7625 3.91607 20.4037 3.14387C20.1545 2.60076 19.5045 2.36762 18.9674 2.61603ZM13.6229 2.94037C11.7587 2.5509 10.1111 3.9592 10.1111 5.75023C10.1111 6.81174 10.6957 7.72859 11.5556 8.22633V21.5636C11.5556 22.3574 12.2024 23.0011 13 23.0011C13.7976 23.0011 14.4444 22.3574 14.4444 21.5636V8.22543C15.4939 7.61719 16.1335 6.38543 15.8 5.02789C15.5458 3.99424 14.6701 3.15869 13.6229 2.94037Z" fill="#303E4F"/>
</svg>
