<svg width="23" height="21" viewBox="0 0 23 21" fill="none" xmlns="http://www.w3.org/2000/svg">
<path d="M0 3.3125C0 1.72451 1.28701 0.4375 2.875 0.4375H20.125C21.7107 0.4375 23 1.72451 23 3.3125V17.6875C23 19.2732 21.7107 20.5625 20.125 20.5625H2.875C1.28701 20.5625 0 19.2732 0 17.6875V3.3125ZM2.875 6.1875H5.75V3.3125H2.875V6.1875ZM20.125 3.3125H8.625V6.1875H20.125V3.3125ZM2.875 11.9375H5.75V9.0625H2.875V11.9375ZM20.125 9.0625H8.625V11.9375H20.125V9.0625ZM2.875 17.6875H5.75V14.8125H2.875V17.6875ZM20.125 14.8125H8.625V17.6875H20.125V14.8125Z" fill="#A1A5AA"/>
</svg>
