<svg width="23" height="21" viewBox="0 0 23 21" fill="none" xmlns="http://www.w3.org/2000/svg">
<path d="M1.79688 0.4375C2.39209 0.4375 2.875 0.92041 2.875 1.51562V19.4844C2.875 20.0818 2.39209 20.5625 1.79688 20.5625H1.07812C0.48291 20.5625 0 20.0818 0 19.4844V1.51562C0 0.92041 0.48291 0.4375 1.07812 0.4375H1.79688ZM5.75 1.15625V19.8438C5.75 20.2391 5.42656 20.5625 5.03125 20.5625C4.63594 20.5625 4.3125 20.2391 4.3125 19.8438V1.15625C4.3125 0.759141 4.63594 0.4375 5.03125 0.4375C5.42656 0.4375 5.75 0.759141 5.75 1.15625ZM8.98438 0.4375C9.58184 0.4375 10.0625 0.92041 10.0625 1.51562V19.4844C10.0625 20.0818 9.58184 20.5625 8.98438 20.5625H8.26562C7.66816 20.5625 7.1875 20.0818 7.1875 19.4844V1.51562C7.1875 0.92041 7.66816 0.4375 8.26562 0.4375H8.98438ZM13.2969 0.4375C13.8943 0.4375 14.375 0.92041 14.375 1.51562V19.4844C14.375 20.0818 13.8943 20.5625 13.2969 20.5625H12.5781C11.9807 20.5625 11.5 20.0818 11.5 19.4844V1.51562C11.5 0.92041 11.9807 0.4375 12.5781 0.4375H13.2969ZM20.125 1.51562C20.125 0.92041 20.6057 0.4375 21.2031 0.4375H21.9219C22.5193 0.4375 23 0.92041 23 1.51562V19.4844C23 20.0818 22.5193 20.5625 21.9219 20.5625H21.2031C20.6057 20.5625 20.125 20.0818 20.125 19.4844V1.51562ZM17.25 1.15625C17.25 0.759141 17.5734 0.4375 17.9688 0.4375C18.3641 0.4375 18.6875 0.759141 18.6875 1.15625V19.8438C18.6875 20.2391 18.3641 20.5625 17.9688 20.5625C17.5734 20.5625 17.25 20.2391 17.25 19.8438V1.15625Z" fill="#303E4F"/>
</svg>
