<svg width="17" height="23" viewBox="0 0 17 23" fill="none" xmlns="http://www.w3.org/2000/svg">
<path d="M13.6562 0H3.59375C2.00576 0 0.71875 1.28701 0.71875 2.875V20.125C0.71875 21.713 2.00576 23 3.59375 23H13.6562C15.2442 23 16.5312 21.713 16.5312 20.125V2.875C16.5312 1.28701 15.242 0 13.6562 0ZM8.625 21.5625C7.82764 21.5625 7.1875 20.9224 7.1875 20.125C7.1875 19.3276 7.82764 18.6875 8.625 18.6875C9.42236 18.6875 10.0625 19.3276 10.0625 20.125C10.0625 20.9224 9.42461 21.5625 8.625 21.5625ZM13.6562 2.875V17.25H3.59375V2.875H13.6562Z" fill="#303E4F"/>
</svg>
