<svg width="26" height="23" viewBox="0 0 26 23" fill="none" xmlns="http://www.w3.org/2000/svg">
<path d="M25.8322 11.4775C25.8322 12.2861 25.1593 12.9195 24.3966 12.9195H22.961L22.9924 20.1115C22.9924 20.2373 22.9834 20.3541 22.9699 20.4754V21.2031C22.9699 22.1959 22.1669 23 21.1754 23H20.4576C20.4082 23 20.3589 22.9596 20.3095 22.9955C20.2467 22.9596 20.1839 23 20.1211 23H17.5864C16.5949 23 15.7918 22.1959 15.7918 21.2031V17.25C15.7918 16.4549 15.1503 15.8125 14.3562 15.8125H11.485C10.6909 15.8125 10.0493 16.4549 10.0493 17.25V21.2031C10.0493 22.1959 9.2463 23 8.25482 23H5.74697C5.67968 23 5.61238 22.9955 5.54509 22.991C5.49125 22.9955 5.43741 23 5.38358 23H4.66577C3.67474 23 2.87124 22.1959 2.87124 21.2031V16.1719C2.87124 16.1314 2.87259 16.0865 2.87528 16.0461V12.9195H1.43786C0.628981 12.9195 0 12.2861 0 11.4775C0 11.0732 0.134769 10.7139 0.44908 10.3994L11.9515 0.360094C12.2656 0.0450117 12.6245 0 12.9385 0C13.2526 0 13.6115 0.0900234 13.8851 0.315082L25.3387 10.3994C25.6976 10.7139 25.8816 11.0732 25.8322 11.4775Z" fill="#57B99E"/>
</svg>
