<svg width="26" height="23" viewBox="0 0 26 23" fill="none" xmlns="http://www.w3.org/2000/svg">
<path d="M18.3281 5.39062C18.3281 7.84336 15.0443 12.2143 13.6023 13.9752C13.2564 14.4469 12.6186 14.4469 12.2727 13.9752C10.8307 12.2143 7.54688 7.84336 7.54688 5.39062C7.54688 2.41365 9.95918 0 12.9375 0C15.9158 0 18.3281 2.41365 18.3281 5.39062ZM12.9375 6.82812C13.9303 6.82812 14.7344 6.02402 14.7344 5.03125C14.7344 4.03893 13.9303 3.23438 12.9375 3.23438C11.9447 3.23438 11.1406 4.03893 11.1406 5.03125C11.1406 6.02402 11.9447 6.82812 12.9375 6.82812ZM19.1187 8.07695C19.1412 8.02305 19.1637 7.96914 19.1861 7.91074L24.3971 5.82637C25.1068 5.54336 25.875 6.06445 25.875 6.82812V18.993C25.875 19.4332 25.6055 19.8285 25.1967 19.9947L18.6875 22.5957V9.00234C18.8447 8.69238 18.9885 8.38691 19.1187 8.07695ZM6.75625 8.07695C6.88652 8.38691 7.03027 8.69238 7.1875 9.00234V20.2957L1.47838 22.5822C0.77041 22.8248 0 22.3441 0 21.5805V9.41563C0 8.97539 0.268408 8.53965 0.677871 8.41387L6.18125 6.2127C6.28906 6.85059 6.50918 7.48398 6.75625 8.07695ZM14.7254 14.8736C15.3498 14.1324 16.3291 12.8611 17.25 11.4551V22.6541L8.625 20.1879V11.4551C9.5459 12.8611 10.5252 14.1324 11.1496 14.8736C12.0705 16.0641 13.8045 16.0641 14.7254 14.8736Z" fill="#303E4F"/>
</svg>
