<svg width="29" height="23" viewBox="0 0 29 23" fill="none" xmlns="http://www.w3.org/2000/svg">
<path d="M7.20365 10.0625H21.611V7.60527C20.3368 7.0123 19.4499 5.78594 19.4499 4.3125C19.4499 2.32785 21.0617 0.71875 23.0517 0.71875C25.0417 0.71875 26.6535 2.32785 26.6535 4.3125C26.6535 5.78594 25.7666 7.0123 24.4924 7.60527V10.0625H27.3739C28.1708 10.0625 28.8146 10.7049 28.8146 11.5C28.8146 12.2951 28.1708 12.9375 27.3739 12.9375H15.848V15.3947C17.1222 15.9473 18.0091 17.2141 18.0091 18.6875C18.0091 20.673 16.3973 22.2812 14.4073 22.2812C12.4173 22.2812 10.8055 20.673 10.8055 18.6875C10.8055 17.2141 11.6924 15.9473 12.9666 15.3947V12.9375H1.44073C0.645177 12.9375 0 12.2951 0 11.5C0 10.7049 0.645177 10.0625 1.44073 10.0625H4.32219V7.60527C3.0503 7.0123 2.1611 5.78594 2.1611 4.3125C2.1611 2.32785 3.77381 0.71875 5.76292 0.71875C7.75293 0.71875 9.36475 2.32785 9.36475 4.3125C9.36475 5.78594 8.4778 7.0123 7.20365 7.60527V10.0625ZM5.76292 5.39062C6.36172 5.39062 6.84347 4.90996 6.84347 4.3125C6.84347 3.71729 6.36172 3.23438 5.76292 3.23438C5.16412 3.23438 4.68237 3.71729 4.68237 4.3125C4.68237 4.90996 5.16412 5.39062 5.76292 5.39062ZM23.0517 3.23438C22.4529 3.23438 21.9711 3.71729 21.9711 4.3125C21.9711 4.90996 22.4529 5.39062 23.0517 5.39062C23.6505 5.39062 24.1322 4.90996 24.1322 4.3125C24.1322 3.71729 23.6505 3.23438 23.0517 3.23438ZM14.4073 19.7656C15.0061 19.7656 15.4879 19.285 15.4879 18.6875C15.4879 18.09 15.0061 17.6094 14.4073 17.6094C13.8085 17.6094 13.3268 18.09 13.3268 18.6875C13.3268 19.285 13.8085 19.7656 14.4073 19.7656Z" fill="#A1A5AA"/>
</svg>
