<svg width="21" height="21" viewBox="0 0 21 21" fill="none" xmlns="http://www.w3.org/2000/svg">
<path d="M20.125 4.70957C20.125 7.13086 18.1934 9.02207 15.8125 9.02207C14.649 9.02207 13.5934 8.6043 12.8207 7.8541L8.59355 9.96543C8.61602 10.1406 8.58457 10.2799 8.58457 10.5C8.58457 10.6797 8.61602 10.8189 8.59355 11.0346L12.8207 13.1459C13.5934 12.3957 14.649 11.9375 15.8125 11.9375C18.1934 11.9375 20.125 13.8287 20.125 16.25C20.125 18.6309 18.1934 20.5625 15.8125 20.5625C13.3912 20.5625 11.5 18.6309 11.5 16.25C11.5 16.0299 11.509 15.8906 11.5314 15.7154L7.3043 13.6041C6.53164 14.3543 5.47598 14.8125 4.3125 14.8125C1.93074 14.8125 0 12.8809 0 10.5C0 8.07871 1.93074 6.1875 4.3125 6.1875C5.47598 6.1875 6.53164 6.6457 7.3043 7.3959L11.5314 5.28457C11.509 5.06894 11.5 4.92969 11.5 4.75C11.5 2.36824 13.3912 0.4375 15.8125 0.4375C18.1934 0.4375 20.125 2.36824 20.125 4.75V4.70957ZM4.27207 11.8971C5.10762 11.8971 5.70957 11.2951 5.70957 10.4596C5.70957 9.70488 5.10762 9.02207 4.27207 9.02207C3.51873 9.02207 2.83457 9.70488 2.83457 10.4596C2.83457 11.2951 3.51873 11.8971 4.27207 11.8971ZM15.8125 3.27207C15.0174 3.27207 14.375 3.95488 14.375 4.70957C14.375 5.54512 15.0174 6.14707 15.8125 6.14707C16.6076 6.14707 17.25 5.54512 17.25 4.70957C17.25 3.95488 16.6076 3.27207 15.8125 3.27207ZM15.8125 17.6875C16.6076 17.6875 17.25 17.0451 17.25 16.25C17.25 15.4549 16.6076 14.8125 15.8125 14.8125C15.0174 14.8125 14.375 15.4549 14.375 16.25C14.375 17.0451 15.0174 17.6875 15.8125 17.6875Z" fill="#303E4F"/>
</svg>
